0
SECTION
2
HEADER
9
$INSUNITS
70
4
0
ENDSEC
0
SECTION
2
TABLES
0
TABLE
2
LTYPE
0
LTYPE
72
65
70
0
2
CONTINUOUS
3
______
73
0
40
0
0
LTYPE
72
65
70
0
2
DASHED
3
_ _ _ 
73
2
40
7.5
49
5
49
-2.5
0
LTYPE
72
65
70
0
2
DOTTED
3
. . . 
73
2
40
1.5
49
0.5
49
-1
0
ENDTAB
0
TABLE
2
LAYER
0
ENDTAB
0
ENDSEC
0
SECTION
2
ENTITIES
0
LINE
8
0
6
CONTINUOUS
10
66.3090762
20
-26.825
11
169.225
21
-26.825
0
LINE
8
0
6
CONTINUOUS
10
172.225
20
-29.825
11
172.225
21
-87.7760427
0
LINE
8
0
6
CONTINUOUS
10
174.448543
20
-90.6738202
11
183.2260853
21
-93.0257556
0
LINE
8
0
6
CONTINUOUS
10
185.3474058
20
-96.6999902
11
176.5346174
21
-129.5897646
0
LINE
8
0
6
CONTINUOUS
10
172.8603828
20
-131.7110851
11
109.3817921
21
-114.702048
0
LINE
8
0
6
CONTINUOUS
10
106.8403973
20
-115.1739247
11
80.5460094
21
-134.3041238
0
LINE
8
0
6
CONTINUOUS
10
78.0046146
20
-134.7760005
11
42.0887882
21
-125.1523838
0
LINE
8
0
6
CONTINUOUS
10
39.9573253
20
-121.5170419
11
63.4011562
21
-29.0874356
0
ARC
8
0
6
CONTINUOUS
10
169.225
20
-29.825
40
3
50
0
51
90
0
ARC
8
0
6
CONTINUOUS
10
175.225
20
-87.7760427
40
3
50
180
51
255.0000021
0
ARC
8
0
6
CONTINUOUS
10
182.4496283
20
-95.9235332
40
3
50
345.0000021
51
75.0000021
0
ARC
8
0
6
CONTINUOUS
10
173.6368398
20
-128.8133076
40
3
50
255.0000021
51
345.0000021
0
ARC
8
0
6
CONTINUOUS
10
108.6053351
20
-117.5998255
40
3
50
75.0000021
51
126.0373561
0
ARC
8
0
6
CONTINUOUS
10
78.7810716
20
-131.878223
40
3
50
255.0000021
51
306.0373561
0
ARC
8
0
6
CONTINUOUS
10
42.8652453
20
-122.2546063
40
3
50
165.7676451
51
255.0000021
0
ARC
8
0
6
CONTINUOUS
10
66.3090762
20
-29.825
40
3
50
90
51
165.7676451
0
CIRCLE
8
0
6
CONTINUOUS
10
168.725
20
-30.325
40
1.1
0
CIRCLE
8
0
6
CONTINUOUS
10
67.475
20
-30.325
40
1.1
0
CIRCLE
8
0
6
CONTINUOUS
10
118.1
20
-30.325
40
1.1
0
CIRCLE
8
0
6
CONTINUOUS
10
173.2832864
20
-128.2009351
40
1.1
0
CIRCLE
8
0
6
CONTINUOUS
10
112.2850705
20
-111.8565124
40
1.1
0
CIRCLE
8
0
6
CONTINUOUS
10
43.5161841
20
-121.9113867
40
1.1
0
CIRCLE
8
0
6
CONTINUOUS
10
76.9130696
20
-130.8600552
40
1.1
0
CIRCLE
8
0
6
CONTINUOUS
10
55.6342895
20
-76.6860016
40
1.1
0
CIRCLE
8
0
6
CONTINUOUS
10
181.8372559
20
-96.2770866
40
1.1
0
LINE
8
0
6
CONTINUOUS
10
73
20
-87.95
11
87
21
-87.95
0
LINE
8
0
6
CONTINUOUS
10
87
20
-87.95
11
87
21
-73.95
0
LINE
8
0
6
CONTINUOUS
10
87
20
-73.95
11
73
21
-73.95
0
LINE
8
0
6
CONTINUOUS
10
73
20
-73.95
11
73
21
-87.95
0
LINE
8
0
6
CONTINUOUS
10
73
20
-68.9
11
87
21
-68.9
0
LINE
8
0
6
CONTINUOUS
10
87
20
-68.9
11
87
21
-54.9
0
LINE
8
0
6
CONTINUOUS
10
87
20
-54.9
11
73
21
-54.9
0
LINE
8
0
6
CONTINUOUS
10
73
20
-54.9
11
73
21
-68.9
0
LINE
8
0
6
CONTINUOUS
10
73
20
-49.85
11
87
21
-49.85
0
LINE
8
0
6
CONTINUOUS
10
87
20
-49.85
11
87
21
-35.85
0
LINE
8
0
6
CONTINUOUS
10
87
20
-35.85
11
73
21
-35.85
0
LINE
8
0
6
CONTINUOUS
10
73
20
-35.85
11
73
21
-49.85
0
LINE
8
0
6
CONTINUOUS
10
92.05
20
-87.95
11
106.05
21
-87.95
0
LINE
8
0
6
CONTINUOUS
10
106.05
20
-87.95
11
106.05
21
-73.95
0
LINE
8
0
6
CONTINUOUS
10
106.05
20
-73.95
11
92.05
21
-73.95
0
LINE
8
0
6
CONTINUOUS
10
92.05
20
-73.95
11
92.05
21
-87.95
0
LINE
8
0
6
CONTINUOUS
10
92.05
20
-68.9
11
106.05
21
-68.9
0
LINE
8
0
6
CONTINUOUS
10
106.05
20
-68.9
11
106.05
21
-54.9
0
LINE
8
0
6
CONTINUOUS
10
106.05
20
-54.9
11
92.05
21
-54.9
0
LINE
8
0
6
CONTINUOUS
10
92.05
20
-54.9
11
92.05
21
-68.9
0
LINE
8
0
6
CONTINUOUS
10
92.05
20
-49.85
11
106.05
21
-49.85
0
LINE
8
0
6
CONTINUOUS
10
106.05
20
-49.85
11
106.05
21
-35.85
0
LINE
8
0
6
CONTINUOUS
10
106.05
20
-35.85
11
92.05
21
-35.85
0
LINE
8
0
6
CONTINUOUS
10
92.05
20
-35.85
11
92.05
21
-49.85
0
LINE
8
0
6
CONTINUOUS
10
111.1
20
-87.95
11
125.1
21
-87.95
0
LINE
8
0
6
CONTINUOUS
10
125.1
20
-87.95
11
125.1
21
-73.95
0
LINE
8
0
6
CONTINUOUS
10
125.1
20
-73.95
11
111.1
21
-73.95
0
LINE
8
0
6
CONTINUOUS
10
111.1
20
-73.95
11
111.1
21
-87.95
0
LINE
8
0
6
CONTINUOUS
10
111.1
20
-68.9
11
125.1
21
-68.9
0
LINE
8
0
6
CONTINUOUS
10
125.1
20
-68.9
11
125.1
21
-54.9
0
LINE
8
0
6
CONTINUOUS
10
125.1
20
-54.9
11
111.1
21
-54.9
0
LINE
8
0
6
CONTINUOUS
10
111.1
20
-54.9
11
111.1
21
-68.9
0
LINE
8
0
6
CONTINUOUS
10
111.1
20
-49.85
11
125.1
21
-49.85
0
LINE
8
0
6
CONTINUOUS
10
125.1
20
-49.85
11
125.1
21
-35.85
0
LINE
8
0
6
CONTINUOUS
10
125.1
20
-35.85
11
111.1
21
-35.85
0
LINE
8
0
6
CONTINUOUS
10
111.1
20
-35.85
11
111.1
21
-49.85
0
LINE
8
0
6
CONTINUOUS
10
130.15
20
-87.95
11
144.15
21
-87.95
0
LINE
8
0
6
CONTINUOUS
10
144.15
20
-87.95
11
144.15
21
-73.95
0
LINE
8
0
6
CONTINUOUS
10
144.15
20
-73.95
11
130.15
21
-73.95
0
LINE
8
0
6
CONTINUOUS
10
130.15
20
-73.95
11
130.15
21
-87.95
0
LINE
8
0
6
CONTINUOUS
10
130.15
20
-68.9
11
144.15
21
-68.9
0
LINE
8
0
6
CONTINUOUS
10
144.15
20
-68.9
11
144.15
21
-54.9
0
LINE
8
0
6
CONTINUOUS
10
144.15
20
-54.9
11
130.15
21
-54.9
0
LINE
8
0
6
CONTINUOUS
10
130.15
20
-54.9
11
130.15
21
-68.9
0
LINE
8
0
6
CONTINUOUS
10
130.15
20
-49.85
11
144.15
21
-49.85
0
LINE
8
0
6
CONTINUOUS
10
144.15
20
-49.85
11
144.15
21
-35.85
0
LINE
8
0
6
CONTINUOUS
10
144.15
20
-35.85
11
130.15
21
-35.85
0
LINE
8
0
6
CONTINUOUS
10
130.15
20
-35.85
11
130.15
21
-49.85
0
LINE
8
0
6
CONTINUOUS
10
149.2
20
-87.95
11
163.2
21
-87.95
0
LINE
8
0
6
CONTINUOUS
10
163.2
20
-87.95
11
163.2
21
-73.95
0
LINE
8
0
6
CONTINUOUS
10
163.2
20
-73.95
11
149.2
21
-73.95
0
LINE
8
0
6
CONTINUOUS
10
149.2
20
-73.95
11
149.2
21
-87.95
0
LINE
8
0
6
CONTINUOUS
10
149.2
20
-68.9
11
163.2
21
-68.9
0
LINE
8
0
6
CONTINUOUS
10
163.2
20
-68.9
11
163.2
21
-54.9
0
LINE
8
0
6
CONTINUOUS
10
163.2
20
-54.9
11
149.2
21
-54.9
0
LINE
8
0
6
CONTINUOUS
10
149.2
20
-54.9
11
149.2
21
-68.9
0
LINE
8
0
6
CONTINUOUS
10
149.2
20
-49.85
11
163.2
21
-49.85
0
LINE
8
0
6
CONTINUOUS
10
163.2
20
-49.85
11
163.2
21
-35.85
0
LINE
8
0
6
CONTINUOUS
10
163.2
20
-35.85
11
149.2
21
-35.85
0
LINE
8
0
6
CONTINUOUS
10
149.2
20
-35.85
11
149.2
21
-49.85
0
LINE
8
0
6
CONTINUOUS
10
119.0517859
20
-107.9497475
11
132.5747475
21
-111.5732141
0
LINE
8
0
6
CONTINUOUS
10
132.5747475
20
-111.5732141
11
136.1982141
21
-98.0502525
0
LINE
8
0
6
CONTINUOUS
10
136.1982141
20
-98.0502525
11
122.6752525
21
-94.4267859
0
LINE
8
0
6
CONTINUOUS
10
122.6752525
20
-94.4267859
11
119.0517859
21
-107.9497475
0
LINE
8
0
6
CONTINUOUS
10
137.4526729
20
-112.8802503
11
150.9756345
21
-116.5037169
0
LINE
8
0
6
CONTINUOUS
10
150.9756345
20
-116.5037169
11
154.5991011
21
-102.9807553
0
LINE
8
0
6
CONTINUOUS
10
154.5991011
20
-102.9807553
11
141.0761395
21
-99.3572887
0
LINE
8
0
6
CONTINUOUS
10
141.0761395
20
-99.3572887
11
137.4526729
21
-112.8802503
0
LINE
8
0
6
CONTINUOUS
10
155.8535599
20
-117.8107531
11
169.3765215
21
-121.4342197
0
LINE
8
0
6
CONTINUOUS
10
169.3765215
20
-121.4342197
11
172.9999881
21
-107.9112581
0
LINE
8
0
6
CONTINUOUS
10
172.9999881
20
-107.9112581
11
159.4770265
21
-104.2877915
0
LINE
8
0
6
CONTINUOUS
10
159.4770265
20
-104.2877915
11
155.8535599
21
-117.8107531
0
LINE
8
0
6
CONTINUOUS
10
54.8831213
20
-119.2372475
11
68.4060829
21
-122.8607141
0
LINE
8
0
6
CONTINUOUS
10
68.4060829
20
-122.8607141
11
72.0295495
21
-109.3377525
0
LINE
8
0
6
CONTINUOUS
10
72.0295495
20
-109.3377525
11
58.5065879
21
-105.7142859
0
LINE
8
0
6
CONTINUOUS
10
58.5065879
20
-105.7142859
11
54.8831213
21
-119.2372475
0
ENDSEC
0
EOF